{"glyphs":{"\u0000":{"ha":903,"x_min":0,"x_max":0,"o":""},"\r":{"ha":524,"x_min":0,"x_max":0,"o":""}," ":{"ha":344,"x_min":0,"x_max":0,"o":""},"A":{"ha":1049,"x_min":0,"x_max":0,"o":"m 337 722 b 490 875 337 806 406 875 b 512 873 498 875 505 874 b 526 870 517 872 521 871 b 529 870 527 870 528 870 b 592 835 552 863 574 852 b 594 834 593 835 593 834 b 598 830 595 832 596 831 b 642 722 627 801 642 763 l 642 565 l 337 565 l 337 722 z m 658 722 b 658 730 658 725 658 728 b 658 740 658 734 658 737 b 642 794 656 759 650 777 b 642 794 642 794 642 794 b 639 802 641 797 640 799 b 609 841 631 816 621 829 b 490 891 577 873 535 891 b 321 722 397 891 321 815 l 321 557 b 329 549 321 552 325 549 l 650 549 l 652 549 b 660 557 656 549 660 552 b 658 561 660 558 659 560 l 658 722 z m 964 7 l 819 7 l 819 396 l 819 722 b 723 955 819 810 785 893 b 490 1051 661 1017 578 1051 b 161 722 308 1051 161 904 l 161 396 l 161 7 l 16 7 l 16 722 b 490 1196 16 983 229 1196 b 825 1057 616 1196 735 1147 b 964 722 914 968 964 849 l 964 7 z m 650 243 l 329 243 b 321 235 325 243 321 240 l 321 7 l 177 7 l 177 388 l 803 388 l 803 7 l 658 7 l 658 235 b 650 243 658 240 655 243 z m 803 404 l 177 404 l 177 722 b 490 1035 177 895 317 1035 b 711 943 574 1035 652 1003 b 803 722 770 884 803 806 l 803 404 z m 836 1068 l 836 1068 b 490 1212 744 1161 621 1212 b 0 722 220 1212 0 992 l 0 -1 b 8 -9 0 -5 4 -9 l 169 -9 l 329 -9 b 337 -1 334 -9 337 -5 l 337 227 l 642 227 l 642 -1 b 650 -9 642 -5 646 -9 l 811 -9 l 972 -9 b 980 -1 976 -9 980 -5 l 980 722 b 836 1068 980 853 929 976 z "},"B":{"ha":1050,"x_min":0,"x_max":0,"o":"m 571 8 l 336 9 l 336 153 l 571 153 b 820 402 708 153 820 265 b 688 622 820 494 770 578 b 571 652 652 641 612 652 b 571 652 571 652 571 652 l 336 651 l 336 796 l 410 796 b 410 796 410 796 410 796 l 571 796 b 577 796 573 796 575 796 b 581 796 578 796 580 796 b 727 764 632 795 681 784 b 727 764 727 764 727 764 b 727 764 727 764 727 764 b 965 402 871 701 965 559 b 571 8 965 185 788 8 z m 336 313 l 571 313 b 571 313 571 313 571 313 b 633 339 594 313 617 323 b 659 402 650 356 659 378 b 572 491 659 450 620 490 b 571 491 572 491 571 491 l 336 491 l 336 635 l 571 635 b 681 608 609 635 647 626 b 804 402 757 567 804 488 b 571 169 804 274 699 169 l 336 169 l 336 313 z m 336 475 l 571 475 b 572 475 571 475 571 475 b 643 402 611 474 643 442 b 622 351 643 383 636 364 b 571 329 608 337 590 329 b 571 329 571 329 571 329 l 336 329 l 336 475 z m 336 876 b 402 812 371 873 398 846 l 336 812 l 336 876 z m 336 1037 b 563 812 459 1033 558 935 l 418 812 b 336 892 414 855 380 889 l 336 1037 z m 336 1194 b 724 804 551 1190 724 1017 b 723 783 724 797 723 790 b 579 812 677 801 629 811 b 336 1053 575 943 468 1049 l 336 1194 z m 320 9 l 176 9 l 176 1194 l 320 1194 l 320 9 z m 160 9 l 16 9 l 16 1194 l 160 1194 l 160 9 z m 739 776 b 740 804 739 785 740 794 b 328 1211 740 1028 555 1211 l 8 1211 b 0 1202 4 1211 0 1207 l 0 1 b 8 -7 0 -4 4 -7 l 328 -7 l 571 -8 b 981 402 797 -8 981 176 b 739 776 981 564 886 710 z "},"C":{"ha":1094,"x_min":0,"x_max":0,"o":"m 599 23 b 187 194 443 23 297 84 b 16 607 77 304 16 451 b 187 1019 16 762 77 909 b 599 1190 297 1129 443 1190 b 1006 1025 752 1190 896 1131 l 918 937 b 274 932 739 1111 451 1109 b 274 282 95 752 95 461 b 599 147 364 192 481 147 b 918 276 714 147 830 190 l 1006 189 b 599 23 896 82 752 23 z m 800 819 b 599 899 745 870 675 899 b 393 813 521 899 448 868 b 307 607 338 758 307 685 b 393 400 307 529 338 455 b 800 395 505 288 686 286 l 907 287 b 285 293 734 120 457 122 b 285 920 112 466 112 747 b 599 1050 372 1007 486 1050 b 907 926 710 1050 821 1009 l 800 819 z m 924 293 l 806 411 b 794 411 803 415 797 415 b 404 411 687 304 512 304 b 323 607 352 464 323 533 b 404 802 323 680 352 750 b 599 883 456 854 525 883 b 794 802 673 883 742 854 b 806 802 797 799 803 799 l 924 920 b 924 920 924 920 924 920 l 1023 1019 b 1025 1025 1024 1020 1025 1023 b 1023 1030 1025 1027 1024 1029 b 599 1206 910 1143 759 1206 b 175 1030 439 1206 289 1143 b 0 607 62 917 0 767 b 175 183 0 447 62 296 b 599 7 289 70 439 7 b 1023 183 759 7 910 70 b 1025 189 1024 184 1025 186 b 1023 194 1025 191 1024 193 l 924 293 z "},"D":{"ha":1019,"x_min":0,"x_max":0,"o":"m 356 13 l 356 138 b 810 600 607 142 810 347 b 674 926 810 723 762 839 b 356 1062 589 1012 476 1059 l 356 1186 b 934 600 675 1182 934 920 b 356 13 934 279 675 18 z m 16 1186 l 170 1186 l 170 13 l 16 13 l 16 1186 z m 340 13 l 186 13 l 186 1186 l 340 1186 l 340 13 z m 356 306 b 641 600 514 310 641 440 b 356 893 641 759 514 889 l 356 1046 b 663 915 472 1043 581 997 b 794 600 747 831 794 719 b 356 154 794 356 598 158 l 356 306 z m 356 877 b 625 600 505 873 625 750 b 356 322 625 449 505 326 l 356 877 z m 348 1202 l 8 1202 b 0 1194 4 1202 0 1198 l 0 5 b 8 -3 0 1 4 -3 l 348 -3 b 950 600 680 -3 950 267 b 348 1202 950 932 680 1202 z "},"E":{"ha":960,"x_min":0,"x_max":0,"o":"m 322 888 b 314 880 317 888 314 885 l 314 761 b 322 753 314 756 317 753 l 722 753 l 722 608 l 173 608 l 173 1034 l 874 1034 l 874 888 l 322 888 z m 322 448 b 314 440 317 448 314 444 l 314 319 b 322 311 314 315 317 311 l 874 311 l 874 167 l 173 167 l 173 592 l 722 592 l 722 448 l 322 448 z m 16 15 l 16 1192 l 874 1192 l 874 1050 l 165 1050 b 157 1042 161 1050 157 1046 l 157 159 b 165 151 157 154 161 151 l 874 151 l 874 15 l 16 15 z m 882 1208 l 8 1208 b 0 1200 4 1208 0 1204 l 0 7 b 8 -1 0 2 4 -1 l 882 -1 b 890 7 886 -1 890 2 l 890 319 b 882 327 890 324 886 327 l 330 327 l 330 432 l 730 432 b 738 440 735 432 738 435 l 738 761 b 730 769 738 765 735 769 l 330 769 l 330 872 l 882 872 b 890 880 886 872 890 876 l 890 1200 b 882 1208 890 1204 886 1208 z "},"F":{"ha":969,"x_min":0,"x_max":0,"o":"m 327 889 b 319 881 323 889 319 886 l 319 721 b 327 713 319 716 323 713 l 723 713 l 723 568 l 172 568 l 172 1036 l 885 1036 l 885 889 l 327 889 z m 329 407 b 321 399 325 407 321 404 l 321 15 l 172 15 l 172 552 l 723 552 l 723 407 l 329 407 z m 16 1194 l 885 1194 l 885 1052 l 164 1052 b 156 1044 160 1052 156 1048 l 156 15 l 16 15 l 16 1194 z m 893 1211 l 8 1211 b 0 1202 4 1211 0 1207 l 0 7 b 8 -1 0 2 4 -1 l 329 -1 b 337 7 334 -1 337 2 l 337 391 l 731 391 b 739 399 735 391 739 395 l 739 721 b 731 729 739 725 735 729 l 335 729 l 335 873 l 893 873 b 901 881 897 873 901 877 l 901 1202 b 893 1211 901 1207 897 1211 z "},"G":{"ha":960,"x_min":0,"x_max":0,"o":"m 874 321 b 568 15 874 152 736 15 l 322 15 b 16 321 153 15 16 152 l 16 881 b 322 1187 16 1050 153 1187 l 798 1187 l 798 1057 l 333 1057 b 157 882 236 1057 157 979 l 157 320 b 333 144 157 223 236 144 l 568 144 b 744 320 665 144 744 223 l 744 395 b 571 568 744 491 667 568 l 418 568 l 418 713 l 562 713 b 874 401 734 713 874 573 l 874 321 z m 316 888 b 308 880 312 888 308 885 l 308 319 b 316 311 308 315 312 311 l 565 311 b 573 319 570 311 573 315 l 573 399 b 565 407 573 404 570 407 l 418 407 l 418 552 l 571 552 b 728 395 658 552 728 482 l 728 320 b 568 160 728 232 656 160 l 333 160 b 173 320 245 160 173 232 l 173 882 b 333 1041 173 970 245 1041 l 798 1041 l 798 888 l 316 888 z m 562 729 l 410 729 b 402 721 406 729 402 725 l 402 399 b 410 391 402 395 406 391 l 557 391 l 557 327 l 324 327 l 324 872 l 806 872 b 814 880 811 872 814 876 l 814 1195 b 806 1203 814 1199 811 1203 l 322 1203 b 0 881 144 1203 0 1059 l 0 321 b 322 -1 0 143 144 -1 l 568 -1 b 890 321 745 -1 890 143 l 890 401 b 562 729 890 582 743 729 z "},"H":{"ha":960,"x_min":0,"x_max":0,"o":"m 874 15 l 733 15 l 733 1186 l 874 1186 l 874 15 z m 562 446 l 311 446 b 303 438 306 446 303 442 l 303 15 l 162 15 l 162 592 l 717 592 l 717 15 l 570 15 l 570 438 b 562 446 570 442 567 446 z m 16 1186 l 146 1186 l 146 15 l 16 15 l 16 1186 z m 311 749 l 562 749 b 570 757 567 749 570 753 l 570 1186 l 717 1186 l 717 608 l 162 608 l 162 1186 l 303 1186 l 303 757 b 311 749 303 753 306 749 z m 882 1202 l 562 1202 b 554 1194 558 1202 554 1199 l 554 765 l 319 765 l 319 1194 b 311 1202 319 1199 315 1202 l 8 1202 b 0 1194 4 1202 0 1199 l 0 7 b 8 -1 0 2 4 -1 l 311 -1 b 319 7 315 -1 319 2 l 319 430 l 554 430 l 554 7 b 562 -1 554 2 558 -1 l 882 -1 b 890 7 886 -1 890 2 l 890 1194 b 882 1202 890 1199 886 1202 z "},"I":{"ha":407,"x_min":0,"x_max":0,"o":"m 321 15 l 177 15 l 177 1186 l 321 1186 l 321 15 z m 16 1186 l 161 1186 l 161 15 l 16 15 l 16 1186 z m 0 1202 l 0 -1 l 337 -1 l 337 1202 l 0 1202 z "},"J":{"ha":889,"x_min":0,"x_max":0,"o":"m 803 345 b 473 15 803 163 655 15 l 341 15 b 16 340 162 15 16 161 l 16 472 l 153 472 l 153 319 b 322 151 153 226 229 151 l 482 151 b 651 319 575 151 651 226 l 651 1186 l 803 1186 l 803 345 z m 488 311 l 488 1186 l 635 1186 l 635 319 b 482 167 635 235 567 167 l 322 167 b 169 319 238 167 169 235 l 169 472 l 318 472 l 318 311 l 488 311 z m 651 1202 l 651 1202 l 635 1202 l 635 1202 l 472 1202 l 472 327 l 334 327 l 334 488 l 0 488 l 0 340 b 341 -1 0 152 153 -1 l 473 -1 b 819 345 664 -1 819 154 l 819 1202 l 651 1202 z "},"K":{"ha":1440,"x_min":0,"x_max":0,"o":"m 764 652 b 763 640 761 649 760 644 l 1321 11 l 1120 11 b 1119 12 1119 12 1119 12 l 552 652 l 1147 1187 l 1342 1187 l 764 652 z m 523 454 b 518 457 522 456 520 457 b 512 455 515 457 513 456 l 316 254 b 314 248 315 252 314 250 l 314 12 l 175 11 b 175 13 175 12 175 12 l 175 313 l 540 641 l 1098 11 l 907 12 l 523 454 z m 16 1194 l 159 1194 l 159 1192 b 159 1189 159 1191 159 1190 l 159 317 b 159 316 159 317 159 317 l 159 11 l 16 11 l 16 1194 z m 319 636 b 327 638 321 635 325 635 l 935 1187 l 1123 1187 l 175 335 l 175 1194 l 314 1195 l 314 644 b 319 636 314 640 316 637 z m 1369 1198 b 1362 1203 1368 1201 1365 1203 l 1148 1203 b 1141 1203 1146 1204 1143 1204 l 932 1203 b 927 1201 930 1203 928 1203 l 330 662 l 330 1203 b 327 1208 330 1205 329 1207 b 322 1211 326 1210 324 1211 b 322 1211 322 1211 322 1211 l 8 1210 b 0 1202 4 1210 0 1206 l 0 3 b 2 -3 0 1 1 -1 b 8 -5 4 -4 6 -5 b 8 -5 8 -5 8 -5 l 164 -5 b 167 -5 165 -5 166 -5 b 170 -5 168 -5 169 -5 l 322 -4 b 330 4 326 -4 330 -1 l 330 245 l 517 437 l 897 -1 b 903 -4 899 -3 901 -4 l 1339 -5 b 1339 -5 1339 -5 1339 -5 b 1346 0 1342 -5 1345 -3 b 1345 8 1347 3 1347 6 l 781 645 l 1367 1189 b 1369 1198 1370 1192 1371 1195 z "},"L":{"ha":960,"x_min":0,"x_max":0,"o":"m 16 15 l 16 1189 l 151 1189 l 151 162 b 159 154 151 158 155 154 l 874 154 l 874 15 l 16 15 z m 320 315 l 874 315 l 874 170 l 167 170 l 167 1189 l 312 1189 l 312 323 b 320 315 312 318 316 315 z m 882 331 l 328 331 l 328 1197 b 320 1205 328 1201 324 1205 l 8 1205 b 0 1197 4 1205 0 1201 l 0 7 b 8 -1 0 2 4 -1 l 882 -1 b 890 7 886 -1 890 2 l 890 323 b 882 331 890 327 886 331 z "},"M":{"ha":1449,"x_min":0,"x_max":0,"o":"m 1363 16 l 1218 16 l 1218 1189 l 1363 1189 l 1363 16 z m 1051 654 b 1042 649 1047 654 1043 652 l 843 170 l 706 170 l 1202 1182 l 1202 16 l 1057 16 l 1057 646 b 1051 654 1057 650 1055 653 z m 335 649 b 326 654 333 652 330 654 b 319 646 322 653 319 650 l 319 16 l 180 16 l 180 1171 l 691 170 l 542 170 l 335 649 z m 16 1189 l 164 1189 l 164 16 l 16 16 l 16 1189 z m 682 483 b 689 478 683 480 686 478 l 689 478 b 696 483 692 478 695 480 l 1054 1189 l 1187 1189 l 698 191 l 189 1189 l 323 1189 l 682 483 z m 1371 1205 l 1049 1205 b 1042 1200 1046 1205 1044 1203 l 689 504 l 335 1200 b 327 1205 333 1203 331 1205 l 8 1205 b 0 1197 4 1205 0 1201 l 0 8 b 8 0 0 4 4 0 l 167 0 b 172 -2 168 -1 170 -2 b 177 0 174 -2 175 -1 l 327 0 b 335 8 332 0 335 4 l 335 607 l 529 159 b 536 154 530 156 533 154 l 849 154 b 856 159 852 154 855 156 l 1041 606 l 1041 8 b 1049 0 1041 4 1045 0 l 1205 0 b 1210 -2 1206 -1 1208 -2 b 1215 0 1212 -2 1213 -1 l 1371 0 b 1379 8 1375 0 1379 4 l 1379 1197 b 1371 1205 1379 1201 1375 1205 z "},"N":{"ha":1129,"x_min":0,"x_max":0,"o":"m 1044 6 l 899 6 l 899 1194 l 1044 1194 l 1044 6 z m 739 236 b 739 241 739 237 739 239 l 739 560 l 739 1194 l 883 1194 l 883 6 l 739 6 l 739 236 z m 337 642 l 337 931 l 723 237 l 723 6 l 655 6 l 337 642 z m 321 6 l 177 6 l 177 1194 l 321 1194 l 321 640 l 321 6 z m 16 1194 l 161 1194 l 161 6 l 16 6 l 16 1194 z m 723 558 l 723 270 l 337 964 l 337 1194 l 405 1194 l 723 558 z m 1052 1211 l 731 1211 b 723 1202 726 1211 723 1207 l 723 594 l 417 1206 b 410 1211 415 1209 413 1211 l 329 1211 l 8 1211 b 0 1202 4 1211 0 1207 l 0 -2 b 8 -10 0 -6 4 -10 l 329 -10 b 337 -2 334 -10 337 -6 l 337 606 l 643 -6 b 650 -10 645 -8 647 -10 l 731 -10 l 1052 -10 b 1060 -2 1056 -10 1060 -6 l 1060 1202 b 1052 1211 1060 1207 1056 1211 z "},"O":{"ha":1272,"x_min":0,"x_max":0,"o":"m 602 335 b 324 612 449 335 324 459 b 602 889 324 765 449 889 b 879 612 755 889 879 765 b 602 335 879 459 755 335 z m 602 905 b 308 612 440 905 308 774 b 602 319 308 450 440 319 b 895 612 763 319 895 450 b 602 905 895 774 763 905 z m 602 166 b 156 612 356 166 156 366 b 602 1058 156 858 356 1058 b 1047 612 847 1058 1047 858 b 602 166 1047 366 847 166 z m 602 1074 b 140 612 347 1074 140 866 b 602 150 140 357 347 150 b 1063 612 856 150 1063 357 b 602 1074 1063 866 856 1074 z m 602 26 b 16 612 279 26 16 289 b 602 1198 16 935 279 1198 b 1187 612 925 1198 1187 935 b 602 26 1187 289 925 26 z m 602 1214 b 0 612 270 1214 0 944 b 602 10 0 280 270 10 b 1203 612 933 10 1203 280 b 602 1214 1203 944 933 1214 z "},"P":{"ha":969,"x_min":0,"x_max":0,"o":"m 646 449 b 490 416 597 427 544 417 l 336 418 l 336 561 l 490 561 b 490 561 490 561 490 561 b 608 591 531 561 572 571 b 739 810 689 634 739 718 b 490 1060 739 948 627 1060 l 328 1060 l 168 1061 b 166 1061 168 1061 167 1061 b 166 1061 166 1061 166 1061 l 166 1061 b 166 1061 166 1061 166 1061 b 166 1061 166 1061 166 1061 b 166 1061 166 1061 166 1061 b 166 1061 166 1061 166 1061 b 166 1061 166 1061 166 1061 l 166 1061 b 166 1061 166 1061 166 1061 b 166 1061 166 1061 166 1061 b 162 1057 164 1060 163 1059 b 162 1057 162 1057 162 1057 b 162 1057 162 1057 162 1057 b 162 1057 162 1057 162 1057 l 162 1057 b 162 1057 162 1057 162 1057 b 162 1057 162 1057 162 1057 b 162 1057 162 1057 162 1057 b 161 1057 161 1057 161 1057 b 161 1057 161 1057 161 1057 b 161 1057 161 1057 161 1057 b 161 1057 161 1057 161 1057 b 161 1057 161 1057 161 1057 b 161 1057 161 1057 161 1057 b 161 1057 161 1057 161 1057 l 161 1057 b 161 1057 161 1057 161 1057 b 161 1057 161 1057 161 1057 b 161 1057 161 1057 161 1057 b 161 1057 161 1057 161 1057 b 161 1057 161 1057 161 1057 b 161 1057 161 1057 161 1057 l 161 1057 b 161 1057 161 1057 161 1057 b 161 1055 161 1056 161 1056 b 161 1055 161 1055 161 1055 b 161 1055 161 1055 161 1055 l 161 1055 b 161 1055 161 1055 161 1055 b 161 1055 161 1055 161 1055 b 161 1055 161 1055 161 1055 b 161 1055 161 1055 161 1055 l 161 1055 b 161 1055 161 1055 161 1055 l 161 1055 b 160 1053 160 1055 160 1054 b 160 1053 160 1053 160 1053 l 160 1053 b 160 1053 160 1053 160 1053 b 160 1053 160 1053 160 1053 l 160 1053 b 160 1053 160 1053 160 1053 b 160 1053 160 1053 160 1053 b 160 1053 160 1053 160 1053 b 160 1053 160 1053 160 1053 l 160 18 l 16 18 l 16 1204 l 328 1204 b 328 1204 328 1204 328 1204 l 490 1204 b 884 810 707 1204 884 1028 b 646 449 884 653 791 511 z m 336 738 l 336 883 l 490 883 b 563 810 530 883 563 850 b 491 738 563 771 530 738 b 490 738 491 738 490 738 l 336 738 z m 329 899 b 329 899 329 899 329 899 b 320 891 324 899 320 896 l 320 18 l 176 18 l 176 1045 l 328 1044 l 490 1044 b 723 810 618 1044 723 939 b 600 605 723 724 676 645 b 490 577 566 587 528 577 l 336 577 l 336 722 l 490 722 b 491 722 490 722 491 722 b 579 810 540 723 579 762 b 490 899 579 859 539 899 l 329 899 z m 490 1220 l 328 1220 l 8 1220 b 0 1212 4 1220 0 1216 l 0 10 b 8 2 0 6 4 2 l 328 2 b 336 10 333 2 336 6 l 336 402 l 490 400 b 653 434 547 400 601 412 b 900 810 803 499 900 647 b 490 1220 900 1036 716 1220 z "},"Q":{"ha":1342,"x_min":0,"x_max":0,"o":"m 187 200 b 16 614 77 311 16 458 b 187 1028 16 770 77 917 b 601 1199 298 1138 445 1199 b 1015 1028 757 1199 904 1138 b 1121 345 1194 848 1237 569 l 1028 438 b 927 940 1099 611 1060 808 b 601 1075 840 1027 724 1075 b 275 940 478 1075 362 1027 b 140 614 188 853 140 737 b 275 288 140 491 188 375 b 601 152 364 199 481 152 b 777 187 660 152 720 164 l 870 94 b 187 200 646 -22 367 21 z m 1140 86 l 672 554 l 781 662 l 859 585 l 1125 318 l 1125 318 l 1249 194 l 1140 86 z m 891 575 b 808 821 904 665 873 757 b 601 907 753 876 679 907 b 394 821 523 907 449 876 b 308 614 339 766 308 692 b 394 407 308 536 339 462 b 602 321 449 352 525 321 b 640 324 615 321 628 322 l 764 200 b 286 299 599 134 413 173 b 156 614 202 383 156 495 b 286 929 156 733 202 845 b 601 1059 370 1013 482 1059 b 916 929 720 1059 832 1013 b 1015 451 1042 802 1081 616 l 891 575 z m 626 338 b 405 418 545 331 463 360 b 324 614 353 470 324 540 b 405 810 324 688 353 757 b 601 891 458 862 527 891 b 797 810 675 891 745 862 b 877 589 855 752 884 670 l 781 685 l 530 434 l 626 338 z m 897 90 l 897 90 l 553 434 l 661 543 l 1129 75 l 1021 -34 l 897 90 z m 1272 194 l 1133 333 b 1197 697 1191 444 1214 572 b 1026 1039 1179 827 1120 946 b 601 1215 913 1153 762 1215 b 176 1039 441 1215 290 1153 b 0 614 63 925 0 774 b 176 189 0 453 63 302 b 518 18 270 95 388 36 b 600 13 546 15 573 13 b 882 82 698 13 796 37 l 1021 -57 l 1272 194 z "},"R":{"ha":976,"x_min":0,"x_max":0,"o":"m 746 -1 b 449 384 742 182 618 336 l 493 384 b 677 428 556 384 620 400 b 891 -1 811 324 888 168 l 746 -1 z m 514 162 b 343 233 469 208 408 233 l 337 233 l 337 384 l 338 384 b 730 -1 551 384 726 212 l 585 -1 b 514 162 583 61 558 118 z m 321 0 l 176 0 l 176 1183 l 321 1183 l 321 1035 l 321 714 b 321 714 321 714 321 714 b 321 713 321 713 321 713 l 321 553 l 321 392 l 321 0 z m 16 1183 l 160 1183 l 160 0 l 16 0 l 16 1183 z m 337 706 l 491 706 b 579 793 539 706 579 745 b 491 881 579 842 539 881 l 337 881 l 337 1027 l 490 1027 b 723 794 619 1027 723 922 b 655 629 723 732 699 673 b 490 561 611 585 552 561 l 337 561 l 337 706 z m 337 865 l 491 865 b 562 793 530 865 562 833 b 491 722 562 754 530 722 l 337 722 l 337 865 z m 769 1068 b 884 792 843 994 884 896 b 674 445 884 646 803 513 b 493 400 618 416 556 400 l 337 400 l 337 545 l 490 545 b 666 618 557 545 619 571 b 739 794 713 665 739 727 b 490 1043 739 931 627 1043 l 337 1043 l 337 1183 l 493 1183 b 769 1068 597 1183 695 1142 z m 692 437 b 900 792 820 509 900 644 b 780 1079 900 900 857 1002 b 493 1199 704 1156 601 1199 l 329 1199 l 168 1199 l 8 1199 b 0 1191 4 1199 0 1195 l 0 -8 b 8 -16 0 -13 4 -16 l 168 -16 l 329 -16 b 337 -8 333 -16 337 -13 l 337 217 l 343 217 b 503 151 404 217 460 193 b 569 -9 546 108 569 51 b 577 -17 569 -14 573 -17 l 899 -17 b 907 -9 903 -17 907 -14 b 692 437 907 166 829 328 z "},"S":{"ha":889,"x_min":0,"x_max":0,"o":"m 424 18 l 96 18 l 96 168 l 413 168 b 658 413 548 168 658 278 b 413 659 658 549 548 659 l 372 659 b 177 855 264 659 177 747 b 372 1051 177 963 264 1051 l 719 1051 l 719 906 l 386 906 b 321 841 350 906 321 877 b 386 776 321 805 350 776 l 424 776 b 803 397 633 776 803 606 b 424 18 803 188 633 18 z m 424 324 b 498 397 465 324 498 357 b 424 471 498 438 465 471 l 386 471 b 16 841 182 471 16 637 b 386 1212 16 1046 182 1212 l 719 1212 l 719 1067 l 372 1067 b 161 855 256 1067 161 972 b 372 643 161 738 256 643 l 413 643 b 642 413 539 643 642 540 b 413 184 642 287 539 184 l 96 184 l 96 324 l 424 324 z m 424 792 l 386 792 b 337 841 359 792 337 814 b 386 890 337 868 359 890 l 727 890 b 735 898 732 890 735 894 l 735 1220 b 727 1228 735 1224 732 1228 l 386 1228 b 0 841 173 1228 0 1054 b 386 455 0 628 173 455 l 424 455 b 482 397 456 455 482 429 b 424 340 482 366 456 340 l 88 340 b 80 332 84 340 80 336 l 80 10 b 88 2 80 6 84 2 l 424 2 b 819 397 642 2 819 180 b 424 792 819 615 642 792 z "},"T":{"ha":889,"x_min":0,"x_max":0,"o":"m 570 904 b 562 896 566 904 562 900 l 562 21 l 418 21 l 418 1049 l 803 1049 l 803 904 l 570 904 z m 249 904 l 16 904 l 16 1049 l 402 1049 l 402 21 l 257 21 l 257 896 b 249 904 257 900 253 904 z m 803 1209 l 803 1065 l 16 1065 l 16 1209 l 803 1209 z m 811 1225 l 8 1225 b 0 1217 4 1225 0 1222 l 0 896 b 8 888 0 892 4 888 l 241 888 l 241 13 b 249 5 241 8 244 5 l 570 5 b 578 13 575 5 578 8 l 578 888 l 811 888 b 819 896 816 888 819 892 l 819 1217 b 811 1225 819 1222 816 1225 z "},"U":{"ha":960,"x_min":0,"x_max":0,"o":"m 874 459 b 445 30 874 223 681 30 b 16 459 208 30 16 223 l 16 1209 l 151 1209 l 151 455 b 440 166 151 295 281 166 b 730 455 600 166 730 295 l 730 1209 l 874 1209 l 874 459 z m 440 326 b 569 455 511 326 569 384 l 569 1209 l 714 1209 l 714 455 b 440 182 714 304 591 182 b 167 455 290 182 167 304 l 167 1209 l 312 1209 l 312 455 b 440 326 312 384 370 326 z m 882 1225 l 561 1225 b 553 1217 556 1225 553 1222 l 553 455 b 440 342 553 393 502 342 b 328 455 378 342 328 393 l 328 1217 b 320 1225 328 1222 324 1225 l 8 1225 b 0 1217 4 1225 0 1222 l 0 459 b 445 14 0 214 200 14 b 890 459 690 14 890 214 l 890 1217 b 882 1225 890 1222 886 1225 z "},"V":{"ha":1049,"x_min":0,"x_max":0,"o":"m 334 15 l 20 725 l 164 725 l 478 15 l 334 15 z m 16 1201 l 161 1201 l 161 741 l 16 741 l 16 1201 z m 321 741 l 177 741 l 177 1201 l 321 1201 l 321 741 z m 489 364 b 489 364 489 364 489 364 b 496 368 492 364 495 366 l 653 725 l 800 725 l 563 192 b 563 192 563 192 563 192 l 490 27 l 181 725 l 324 725 l 482 368 b 489 364 483 365 486 364 z m 660 1199 l 809 1199 l 803 741 l 656 741 l 660 1199 z m 960 741 l 819 741 l 825 1199 l 964 1199 l 960 741 z m 645 15 l 502 15 l 578 185 l 818 725 l 955 725 l 645 15 z m 975 730 b 976 732 975 730 975 731 b 976 732 976 732 976 732 b 976 733 976 732 976 733 l 980 1207 b 977 1213 980 1209 979 1211 b 972 1215 976 1214 974 1215 l 652 1215 b 644 1207 647 1215 644 1212 l 640 735 l 489 391 l 337 735 l 337 1209 b 335 1215 337 1212 336 1214 b 329 1217 333 1217 331 1217 b 329 1217 329 1217 329 1217 l 169 1217 b 169 1217 169 1217 169 1217 l 169 1217 b 169 1217 169 1217 169 1217 l 8 1217 b 0 1209 4 1217 0 1213 l 0 733 b 0 732 0 733 0 733 b 0 731 0 732 0 732 b 1 730 0 731 0 730 b 1 730 1 730 1 730 l 322 4 b 329 -1 323 1 326 -1 l 490 -1 l 490 -1 l 650 -1 b 650 -1 650 -1 650 -1 b 651 -1 650 -1 651 -1 b 652 0 651 -1 652 -1 b 653 0 653 0 653 0 b 655 0 654 0 654 0 b 655 1 655 0 655 1 b 656 2 655 1 656 1 b 657 2 656 2 657 2 b 658 4 657 3 657 3 b 658 4 658 4 658 4 l 658 4 b 658 4 658 4 658 4 l 975 730 z "},"W":{"ha":1783,"x_min":0,"x_max":0,"o":"m 1362 13 l 1236 13 b 1237 16 1237 14 1237 15 l 1543 1196 l 1694 1196 l 1362 13 z m 874 1196 l 1025 1196 l 1192 584 b 1199 578 1193 581 1196 578 b 1207 584 1203 578 1206 581 l 1374 1196 l 1526 1196 l 1225 34 l 874 1196 z m 1037 13 l 868 597 b 860 602 867 600 863 602 b 852 597 856 602 853 600 l 683 13 l 535 13 b 537 16 536 14 536 15 l 862 1179 l 1214 16 b 1216 13 1215 15 1215 14 l 1037 13 z m 199 1196 l 339 1196 l 509 573 b 517 567 510 570 514 567 b 525 573 521 567 524 570 l 695 1196 l 851 1196 l 525 34 l 199 1196 z m 352 13 l 19 1196 l 182 1196 l 514 16 b 515 13 514 15 514 14 l 352 13 z m 1711 1209 b 1705 1212 1710 1211 1707 1212 l 1368 1212 b 1360 1206 1364 1212 1361 1209 l 1199 617 l 1038 1206 b 1031 1212 1037 1209 1034 1212 l 689 1212 b 681 1206 685 1212 682 1209 l 517 606 l 353 1206 b 345 1212 352 1209 349 1212 l 8 1212 b 2 1209 6 1212 4 1211 b 1 1202 0 1207 0 1204 l 338 3 b 345 -3 339 0 342 -3 l 689 -3 b 697 3 692 -3 696 0 l 860 566 l 1023 3 b 1031 -3 1024 0 1027 -3 l 1368 -3 b 1376 3 1371 -3 1375 0 l 1713 1202 b 1711 1209 1713 1204 1713 1207 z "},"X":{"ha":1299,"x_min":0,"x_max":0,"o":"m 1058 18 l 630 610 l 1042 1198 l 1205 1198 l 793 609 b 793 600 791 607 791 603 l 1205 18 l 1058 18 z m 621 344 b 614 348 619 347 617 348 b 608 344 612 348 609 347 l 379 18 l 215 18 l 620 596 l 1038 18 l 849 18 l 621 344 z m 436 600 b 436 609 438 603 438 607 l 24 1198 l 186 1198 l 610 610 l 195 18 l 24 18 l 436 600 z m 608 862 b 621 862 611 858 618 858 l 858 1198 l 1022 1198 l 620 624 l 206 1198 l 370 1198 l 608 862 z m 809 605 l 1227 1202 b 1227 1210 1228 1204 1228 1207 b 1220 1214 1226 1213 1223 1214 l 854 1214 b 848 1211 851 1214 849 1213 l 614 881 l 381 1211 b 374 1214 379 1213 377 1214 l 8 1214 b 1 1210 6 1214 3 1213 b 2 1202 0 1207 0 1204 l 419 605 l 2 14 b 1 6 0 12 0 9 b 8 2 3 3 5 2 l 383 2 b 390 5 386 2 389 3 l 614 326 l 838 5 b 845 2 840 3 842 2 l 1220 2 b 1227 6 1223 2 1226 3 b 1227 14 1228 9 1228 12 l 809 605 z "},"Y":{"ha":1217,"x_min":0,"x_max":0,"o":"m 726 408 l 726 16 l 581 16 l 581 408 l 980 1205 l 1123 1205 l 729 418 l 726 408 z m 726 411 l 726 411 z m 24 1205 l 167 1205 l 565 408 l 565 16 l 421 16 l 421 408 l 24 1205 z m 577 721 l 819 1205 l 962 1205 l 573 427 l 185 1205 l 328 1205 l 570 721 b 577 721 571 717 576 717 z m 743 409 l 1145 1214 b 1141 1221 1147 1217 1145 1221 l 812 1221 b 808 1218 810 1221 809 1220 l 573 749 l 339 1218 b 335 1221 338 1220 336 1221 l 5 1221 b 1 1214 2 1221 0 1217 l 405 408 l 405 4 b 409 0 405 2 407 0 l 738 0 b 742 4 740 0 742 2 l 742 402 l 743 409 z "},"Z":{"ha":1043,"x_min":0,"x_max":0,"o":"m 16 25 l 16 206 l 958 1007 l 958 809 l 16 25 z m 958 176 l 222 176 l 395 320 l 958 320 l 958 176 z m 30 15 l 203 160 l 958 160 l 958 15 l 30 15 z m 592 880 b 592 880 592 880 592 880 l 958 1184 l 958 1028 l 16 227 l 16 400 l 592 880 z m 16 894 l 16 1039 l 757 1039 l 584 894 l 16 894 z m 943 1194 l 899 1157 l 777 1055 l 16 1055 l 16 1194 l 943 1194 z m 974 806 l 974 1202 b 974 1202 974 1202 974 1202 b 973 1203 974 1202 973 1202 b 973 1204 973 1203 973 1204 b 973 1204 973 1204 973 1204 b 973 1205 973 1205 973 1205 b 972 1206 973 1205 972 1206 b 971 1207 972 1206 972 1207 b 970 1208 971 1207 971 1208 b 970 1208 970 1208 970 1208 b 969 1209 969 1209 969 1209 b 968 1209 969 1209 969 1209 b 967 1209 968 1209 968 1209 b 966 1209 967 1209 967 1209 b 966 1210 966 1209 966 1210 l 8 1210 b 0 1202 4 1210 0 1206 l 0 1047 b 0 1047 0 1047 0 1047 b 0 1047 0 1047 0 1047 l 0 886 b 8 878 0 882 4 878 l 565 878 l 3 410 b 0 404 1 409 0 407 l 0 7 b 0 7 0 7 0 7 b 0 6 0 7 0 7 b 0 5 0 6 0 5 b 0 5 0 5 0 5 b 1 4 1 5 1 4 b 2 3 1 4 1 3 b 2 2 2 3 2 2 b 3 1 2 2 3 1 b 4 1 3 1 4 1 b 5 0 4 0 4 0 b 5 0 5 0 5 0 b 6 0 5 0 6 0 b 8 -1 7 0 7 -1 l 966 -1 b 974 7 970 -1 974 3 l 974 328 b 966 336 974 332 970 336 l 414 336 l 971 800 b 974 806 973 801 974 803 z "},"a":{"ha":1107,"x_min":0,"x_max":0,"o":"m 490 337 b 337 490 406 337 337 406 b 490 642 337 574 406 642 b 642 490 574 642 642 574 b 490 337 642 406 574 337 z m 490 658 b 321 490 397 658 321 583 b 490 321 321 397 397 321 b 658 490 583 321 658 397 b 490 658 658 583 583 658 z m 490 177 b 177 490 317 177 177 317 b 490 803 177 663 317 803 b 803 490 663 803 803 663 b 490 177 803 317 663 177 z m 490 819 b 161 490 308 819 161 671 b 490 161 161 308 308 161 b 819 490 671 161 819 308 b 490 819 819 671 671 819 z m 963 17 l 819 17 l 819 127 b 963 364 888 190 939 272 l 963 17 z m 659 30 b 803 114 712 50 760 78 l 803 17 l 659 17 l 659 30 z m 16 490 b 490 964 16 751 229 964 b 963 506 746 964 954 760 l 963 473 b 490 16 954 220 746 16 b 16 490 229 16 16 229 z m 659 966 l 803 966 l 803 866 b 659 950 760 902 712 930 l 659 966 z m 963 616 b 819 852 939 708 888 790 l 819 966 l 963 966 l 963 616 z m 980 490 b 979 509 980 496 979 503 l 979 974 b 971 982 979 978 976 982 l 651 982 b 643 974 646 982 643 978 l 643 955 b 490 980 595 971 543 980 b 0 490 220 980 0 760 b 490 0 0 220 220 0 b 643 25 543 0 595 9 l 643 9 b 651 1 643 5 646 1 l 971 1 b 979 9 976 1 979 5 l 979 470 b 980 490 979 477 980 483 z "},"b":{"ha":1049,"x_min":0,"x_max":0,"o":"m 490 337 b 337 490 406 337 337 406 b 490 642 337 574 406 642 b 642 490 574 642 642 574 b 490 337 642 406 574 337 z m 490 658 b 321 490 397 658 321 583 b 490 321 321 397 397 321 b 658 490 583 321 658 397 b 490 658 658 583 583 658 z m 490 177 b 177 490 317 177 177 317 b 490 803 177 663 317 803 b 803 490 663 803 803 663 b 490 177 803 317 663 177 z m 490 819 b 161 490 308 819 161 671 b 490 161 161 308 308 161 b 819 490 671 161 819 308 b 490 819 819 671 671 819 z m 490 16 b 16 473 234 16 25 220 l 16 506 b 490 964 25 760 234 964 b 964 490 751 964 964 751 b 490 16 964 229 751 16 z m 321 17 l 177 17 l 177 114 b 321 30 219 78 268 50 l 321 17 z m 16 364 b 161 127 41 272 92 190 l 161 17 l 16 17 l 16 364 z m 16 1203 l 161 1203 l 161 852 b 16 616 92 790 41 708 l 16 1203 z m 321 950 b 177 866 268 930 219 902 l 177 1203 l 321 1203 l 321 950 z m 490 980 b 337 955 436 980 385 971 l 337 1211 b 329 1219 337 1216 333 1219 l 8 1219 b 0 1211 4 1219 0 1216 l 0 509 b 0 490 0 503 0 496 b 0 470 0 483 0 477 l 0 9 b 8 1 0 5 4 1 l 329 1 b 337 9 333 1 337 5 l 337 25 b 490 0 385 9 436 0 b 980 490 760 0 980 220 b 490 980 980 760 760 980 z "},"c":{"ha":908,"x_min":0,"x_max":0,"o":"m 490 16 b 155 155 363 16 244 65 b 16 490 65 244 16 363 b 155 825 16 616 65 735 b 490 964 244 914 363 964 b 819 830 614 964 730 916 l 717 728 b 257 723 588 851 384 849 b 257 257 129 594 129 385 b 490 161 321 193 406 161 b 717 252 572 161 653 191 l 819 149 b 490 16 730 63 614 16 z m 603 615 b 371 609 537 675 434 673 b 321 490 339 577 321 535 b 371 371 321 445 339 402 b 490 321 402 339 445 321 b 603 365 532 321 572 337 l 705 263 b 268 268 583 146 389 148 b 268 711 146 390 146 589 b 705 717 389 832 583 833 l 603 615 z m 723 268 b 723 268 723 268 723 268 b 723 268 723 268 723 268 l 609 382 b 598 382 606 385 601 385 b 490 337 569 353 531 337 b 382 382 449 337 411 353 b 337 490 353 411 337 449 b 382 598 337 531 353 569 b 598 598 441 657 538 657 b 609 598 601 595 606 595 l 723 711 b 723 711 723 711 723 711 b 723 711 723 711 723 711 l 836 825 b 836 836 839 828 839 833 b 490 980 744 929 621 980 b 143 836 359 980 236 929 b 0 490 51 744 0 621 b 143 143 0 359 51 236 b 490 0 236 51 359 0 b 836 143 621 0 744 51 b 836 155 839 147 839 152 l 723 268 z "},"d":{"ha":1049,"x_min":0,"x_max":0,"o":"m 490 337 b 337 490 406 337 337 406 b 490 642 337 574 406 642 b 642 490 574 642 642 574 b 490 337 642 406 574 337 z m 490 658 b 321 490 397 658 321 583 b 490 321 321 397 397 321 b 658 490 583 321 658 397 b 490 658 658 583 583 658 z m 490 177 b 177 490 317 177 177 317 b 490 803 177 663 317 803 b 803 490 663 803 803 663 b 490 177 803 317 663 177 z m 490 819 b 161 490 308 819 161 671 b 490 161 161 308 308 161 b 819 490 671 161 819 308 b 490 819 819 671 671 819 z m 963 17 l 819 17 l 819 127 b 963 364 888 190 939 272 l 963 17 z m 659 30 b 803 114 712 50 760 78 l 803 17 l 659 17 l 659 30 z m 16 490 b 490 964 16 751 229 964 b 963 506 746 964 954 760 l 963 473 b 490 16 954 220 746 16 b 16 490 229 16 16 229 z m 659 1203 l 803 1203 l 803 866 b 659 950 760 902 712 930 l 659 1203 z m 963 616 b 819 852 939 708 888 790 l 819 1203 l 963 1203 l 963 616 z m 980 490 b 979 509 980 496 979 503 l 979 1211 b 971 1219 979 1216 976 1219 l 651 1219 b 643 1211 646 1219 643 1216 l 643 955 b 490 980 595 971 543 980 b 0 490 220 980 0 760 b 490 0 0 220 220 0 b 643 25 543 0 595 9 l 643 9 b 651 1 643 5 646 1 l 971 1 b 979 9 976 1 979 5 l 979 470 b 980 490 979 477 980 483 z "},"e":{"ha":1049,"x_min":0,"x_max":0,"o":"m 819 498 b 490 819 815 676 669 819 b 161 490 308 819 161 671 b 490 161 161 308 308 161 b 717 251 575 161 655 193 l 819 149 b 490 16 730 63 614 16 b 16 490 229 16 16 229 b 490 964 16 751 229 964 b 964 498 748 964 959 755 l 819 498 z m 642 498 l 337 498 b 490 642 342 578 408 642 b 642 498 571 642 638 578 z m 490 321 b 603 365 532 321 572 337 l 705 263 b 490 177 647 207 571 177 b 177 490 317 177 177 317 b 490 803 177 663 317 803 b 803 498 660 803 799 667 l 658 498 b 490 658 654 587 580 658 b 321 490 397 658 321 583 b 490 321 321 397 397 321 z m 490 980 b 0 490 220 980 0 760 b 490 0 0 220 220 0 b 836 143 621 0 744 51 b 839 149 838 145 839 147 b 836 155 839 151 838 153 l 609 382 b 606 384 608 383 607 383 b 606 384 606 384 606 384 b 604 384 606 384 605 384 b 603 384 604 384 604 384 b 601 384 603 384 602 384 b 600 384 601 384 601 384 b 599 383 600 383 599 383 b 598 382 598 382 598 382 b 490 337 569 353 531 337 b 337 482 408 337 342 401 l 972 482 b 980 490 976 482 980 485 b 490 980 980 760 760 980 z "},"f":{"ha":890,"x_min":0,"x_max":0,"o":"m 657 890 b 492 1056 656 983 584 1056 b 369 1003 446 1056 403 1037 b 318 880 337 970 318 925 l 318 570 l 16 570 l 16 714 l 177 714 b 185 722 182 714 185 718 l 185 876 b 499 1189 185 1048 326 1189 l 514 1189 b 805 890 677 1189 801 1061 l 657 890 z m 498 890 b 498 890 498 890 498 890 b 492 888 496 890 494 889 b 490 882 491 886 490 884 l 490 722 b 498 714 490 718 493 714 l 645 714 l 645 570 l 334 570 l 334 880 b 381 992 334 920 351 961 b 492 1040 411 1023 451 1040 b 641 890 575 1040 640 974 l 498 890 z m 498 415 b 490 407 493 415 490 412 l 490 16 l 334 16 l 334 554 l 645 554 l 645 415 l 498 415 z m 177 415 l 16 415 l 16 554 l 318 554 l 318 16 l 185 16 l 185 407 b 177 415 185 412 182 415 z m 514 1205 l 499 1205 b 169 876 317 1205 169 1057 l 169 730 l 8 730 b 0 722 4 730 0 726 l 0 407 b 8 399 0 403 4 399 l 169 399 l 169 8 b 177 0 169 4 173 0 l 498 0 b 506 8 502 0 506 4 l 506 399 l 653 399 b 661 407 657 399 661 403 l 661 722 b 653 730 661 726 657 730 l 506 730 l 506 874 l 813 874 b 813 874 813 874 813 874 b 819 876 815 874 817 875 b 821 882 820 878 821 880 b 514 1205 821 1066 689 1205 z "},"g":{"ha":1057,"x_min":0,"x_max":0,"o":"m 658 -371 l 505 -374 l 505 -230 l 645 -227 b 766 -177 691 -227 734 -209 b 816 -56 798 -144 816 -101 l 816 123 b 971 397 895 193 951 289 l 971 -58 b 658 -371 971 -230 831 -371 z m 505 -70 l 662 -70 l 662 29 b 800 109 713 48 759 75 l 800 -56 b 755 -165 800 -97 784 -136 b 645 -211 726 -195 687 -211 l 505 -214 l 505 -70 z m 16 488 b 490 961 16 749 229 961 b 964 488 751 961 964 749 b 490 14 964 226 751 14 b 16 488 229 14 16 226 z m 667 970 l 800 970 l 800 866 b 667 945 760 899 715 926 l 667 970 z m 971 579 b 814 855 951 688 894 784 l 816 855 l 816 970 l 971 970 l 971 579 z m 651 986 l 651 950 b 490 978 600 968 546 978 b 0 488 220 978 0 758 b 490 -2 0 218 220 -2 b 646 23 544 -2 597 7 l 646 -54 l 489 -54 l 489 -215 l 489 -222 l 489 -391 l 658 -387 b 987 -58 839 -387 987 -239 l 987 986 l 651 986 z m 490 335 b 337 488 406 335 337 404 b 490 640 337 572 406 640 b 642 488 574 640 642 572 b 490 335 642 404 574 335 z m 490 656 b 321 488 397 656 321 581 b 490 319 321 395 397 319 b 658 488 583 319 658 395 b 490 656 658 581 583 656 z m 490 174 b 177 488 317 174 177 315 b 490 801 177 660 317 801 b 803 488 663 801 803 660 b 490 174 803 315 663 174 z m 490 817 b 161 488 308 817 161 669 b 490 158 161 306 308 158 b 819 488 671 158 819 306 b 490 817 819 669 671 817 z "},"h":{"ha":1049,"x_min":0,"x_max":0,"o":"m 963 16 l 819 16 l 819 489 b 489 818 819 670 671 818 b 160 489 308 818 160 670 l 160 16 l 16 16 l 16 508 b 171 840 21 639 79 757 b 175 844 173 841 174 842 b 331 935 220 883 272 914 b 489 962 382 953 435 962 b 963 491 750 962 962 751 b 963 489 963 490 963 489 l 963 16 z m 658 491 b 489 657 657 583 581 657 b 321 491 397 657 322 583 b 320 489 321 490 320 490 l 320 16 l 176 16 l 176 489 b 489 802 176 661 317 802 b 803 489 662 802 803 661 l 803 16 l 658 16 l 658 489 b 658 491 658 490 658 490 z m 16 1199 l 160 1199 l 160 852 b 16 615 91 789 40 707 l 16 1199 z m 320 948 b 176 866 267 929 218 901 l 176 1199 l 320 1199 l 320 948 z m 979 489 b 489 978 979 759 760 978 b 336 954 437 978 386 970 l 336 1207 b 328 1215 336 1211 333 1215 l 168 1215 b 168 1215 168 1215 168 1215 b 168 1215 168 1215 168 1215 l 8 1215 b 0 1207 4 1215 0 1211 l 0 509 l 0 8 b 8 0 0 4 4 0 l 328 0 b 336 8 333 0 336 4 l 336 486 b 337 489 337 487 337 488 b 489 641 337 573 405 641 b 642 489 574 641 642 573 b 642 486 642 488 642 487 l 642 8 b 650 0 642 4 646 0 l 971 0 b 979 8 975 0 979 4 l 979 486 b 979 489 979 487 979 488 z "},"i":{"ha":407,"x_min":0,"x_max":0,"o":"m 169 1284 b 322 1132 253 1284 322 1216 b 169 979 322 1048 253 979 b 16 1132 85 979 16 1048 b 169 1284 16 1216 85 1284 z m 169 963 b 338 1132 262 963 338 1039 b 169 1300 338 1225 262 1300 b 0 1132 76 1300 0 1225 b 169 963 0 1039 76 963 z m 320 16 l 176 16 l 176 883 l 320 883 l 320 16 z m 16 883 l 160 883 l 160 16 l 16 16 l 16 883 z m 328 899 l 8 899 b 0 891 4 899 0 896 l 0 8 b 8 0 0 4 4 0 l 328 0 b 336 8 333 0 336 4 l 336 891 b 328 899 336 896 333 899 z "},"j":{"ha":572,"x_min":0,"x_max":0,"o":"m 326 1390 b 479 1237 410 1390 479 1321 b 326 1084 479 1153 410 1084 b 174 1237 242 1084 174 1153 b 326 1390 174 1321 242 1390 z m 326 1068 b 495 1237 419 1068 495 1144 b 326 1406 495 1330 419 1406 b 158 1237 233 1406 158 1330 b 326 1068 158 1144 233 1068 z m 486 -41 b 173 -354 486 -213 346 -354 l 16 -358 l 16 -213 l 160 -210 b 281 -160 206 -210 249 -192 b 331 -39 314 -128 331 -85 l 331 987 l 486 987 l 486 -41 z m 174 -53 b 182 -45 178 -53 182 -50 l 182 987 l 315 987 l 315 -39 b 270 -148 315 -80 299 -119 b 160 -194 241 -178 202 -194 l 16 -197 l 16 -57 l 174 -53 z m 494 1003 l 174 1003 b 166 995 169 1003 166 999 l 166 -37 l 8 -41 b 7 -41 8 -41 7 -41 b 6 -41 7 -41 7 -41 b 5 -41 6 -41 6 -41 b 5 -42 5 -42 5 -42 b 4 -42 5 -42 4 -42 b 3 -42 4 -42 4 -42 b 3 -43 3 -43 3 -43 b 2 -43 3 -43 2 -43 b 2 -44 2 -44 2 -44 b 1 -45 2 -44 1 -44 b 1 -45 1 -45 1 -45 b 1 -46 1 -46 1 -46 b 0 -47 1 -46 0 -46 b 0 -48 0 -47 0 -47 b 0 -48 0 -48 0 -48 b 0 -49 0 -49 0 -49 l 0 -206 l 0 -366 b 2 -372 0 -368 1 -370 b 8 -374 4 -373 6 -374 b 8 -374 8 -374 8 -374 l 173 -370 b 502 -41 355 -370 502 -222 l 502 995 b 494 1003 502 999 499 1003 z "},"k":{"ha":1172,"x_min":0,"x_max":0,"o":"m 608 544 b 607 533 605 541 604 536 l 1022 16 l 794 16 l 389 550 l 853 956 l 1073 955 l 608 544 z m 335 341 b 326 344 333 344 329 345 b 320 336 323 343 320 340 l 320 16 l 176 16 l 176 364 l 377 540 l 774 16 l 584 16 l 335 341 z m 16 1202 l 160 1202 l 160 16 l 16 16 l 16 1202 z m 325 699 b 334 700 328 697 331 698 l 630 956 l 829 956 l 176 385 l 176 1202 l 320 1202 l 320 706 b 325 699 320 703 322 700 z m 1101 966 b 1094 971 1100 969 1097 971 l 627 972 b 627 972 627 972 627 972 b 622 971 625 972 623 972 l 336 724 l 336 1210 b 328 1218 336 1214 333 1218 l 8 1218 b 0 1210 4 1218 0 1214 l 0 8 b 8 0 0 4 4 0 l 328 0 b 336 8 333 0 336 4 l 336 313 l 574 3 b 580 0 576 1 578 0 l 1039 0 b 1046 5 1042 0 1045 2 b 1045 13 1047 7 1047 11 l 624 537 l 1099 957 b 1101 966 1102 960 1103 963 z "},"l":{"ha":406,"x_min":0,"x_max":0,"o":"m 320 16 l 176 16 l 176 1202 l 320 1202 l 320 16 z m 16 1202 l 160 1202 l 160 16 l 16 16 l 16 1202 z m 328 1218 l 8 1218 b 0 1210 4 1218 0 1214 l 0 8 b 8 0 0 4 4 0 l 328 0 b 336 8 333 0 336 4 l 336 1210 b 328 1218 336 1214 333 1218 z "},"m":{"ha":1692,"x_min":0,"x_max":0,"o":"m 1606 16 l 1461 16 l 1461 489 b 1132 818 1461 670 1314 818 b 811 560 975 818 844 708 b 490 818 778 708 647 818 b 161 489 309 818 161 671 b 161 489 161 489 161 489 l 161 16 l 16 16 l 16 505 b 490 962 25 759 234 962 b 805 842 690 962 804 843 b 816 842 808 839 813 839 b 1132 962 903 920 1015 962 b 1606 491 1393 962 1605 751 b 1606 489 1606 490 1606 489 l 1606 16 z m 1301 491 b 1132 657 1299 583 1224 657 b 964 491 1040 657 965 583 b 963 489 963 490 963 490 l 963 16 l 819 16 l 819 489 b 1132 802 819 661 960 802 b 1445 489 1305 802 1445 661 l 1445 16 l 1301 16 l 1301 489 b 1301 491 1301 490 1301 490 z m 658 491 b 490 657 657 583 582 657 b 321 491 398 657 323 583 b 321 489 321 490 321 490 l 321 16 l 177 16 l 177 489 b 490 802 177 661 317 802 b 803 489 663 802 803 661 l 803 16 l 659 16 l 659 489 b 658 491 659 490 659 490 z m 16 962 l 161 962 l 161 851 b 16 615 92 788 41 707 l 16 962 z m 321 948 b 177 865 268 929 219 900 l 177 962 l 321 962 l 321 948 z m 1622 489 b 1132 978 1622 759 1402 978 b 811 859 1014 978 900 936 b 490 978 786 883 675 978 b 337 954 436 978 385 970 l 337 970 b 329 978 337 975 333 978 l 8 978 b 0 970 4 978 0 975 l 0 508 b 0 489 0 502 0 495 b 0 486 0 488 0 487 l 0 8 b 8 0 0 4 4 0 l 329 0 b 337 8 333 0 337 4 l 337 486 b 337 489 337 487 337 488 b 490 641 337 573 406 641 b 642 489 574 641 642 573 b 643 486 642 488 643 487 l 643 8 b 651 0 643 4 646 0 l 971 0 b 979 8 976 0 979 4 l 979 486 b 980 489 979 487 980 488 b 1132 641 980 573 1048 641 b 1285 489 1216 641 1285 573 b 1285 486 1285 488 1285 487 l 1285 8 b 1293 0 1285 4 1289 0 l 1614 0 b 1622 8 1618 0 1622 4 l 1622 486 b 1622 489 1622 487 1622 488 z "},"n":{"ha":1049,"x_min":0,"x_max":0,"o":"m 963 16 l 819 16 l 819 489 b 490 818 819 670 671 818 b 161 489 308 818 161 670 l 161 16 l 16 16 l 16 508 b 172 840 22 639 79 757 b 176 844 173 841 175 842 b 331 935 220 883 273 914 b 490 962 382 953 436 962 b 964 491 750 962 962 751 b 963 489 963 490 963 489 l 963 16 z m 658 491 b 490 657 657 583 582 657 b 321 491 398 657 323 583 b 321 489 321 490 321 490 l 321 16 l 177 16 l 177 489 b 490 802 177 661 317 802 b 803 489 663 802 803 661 l 803 16 l 659 16 l 659 489 b 658 491 659 490 659 490 z m 161 973 l 161 852 b 16 615 91 789 41 707 l 16 973 l 161 973 z m 321 948 b 177 866 267 929 219 901 l 177 973 l 321 973 l 321 948 z m 980 489 b 490 978 980 759 760 978 b 337 954 437 978 386 970 l 337 981 b 329 989 337 985 333 989 l 169 989 b 169 989 169 989 169 989 b 168 989 169 989 168 989 l 8 989 b 0 981 4 989 0 985 l 0 509 b 0 489 0 503 0 496 b 0 486 0 488 0 487 l 0 8 b 8 0 0 4 4 0 l 329 0 b 337 8 333 0 337 4 l 337 486 b 337 489 337 487 337 488 b 490 641 337 573 406 641 b 642 489 574 641 642 573 b 643 486 642 488 643 487 l 643 8 b 651 0 643 4 646 0 l 971 0 b 979 8 976 0 979 4 l 979 486 b 980 489 980 487 980 488 z "},"o":{"ha":1049,"x_min":0,"x_max":0,"o":"m 490 337 b 337 490 406 337 337 406 b 490 642 337 574 406 642 b 642 490 574 642 642 574 b 490 337 642 406 574 337 z m 490 658 b 321 490 397 658 321 583 b 490 321 321 397 397 321 b 658 490 583 321 658 397 b 490 658 658 583 583 658 z m 490 177 b 177 490 317 177 177 317 b 490 803 177 663 317 803 b 803 490 663 803 803 663 b 490 177 803 317 663 177 z m 490 819 b 161 490 308 819 161 671 b 490 161 161 308 308 161 b 819 490 671 161 819 308 b 490 819 819 671 671 819 z m 490 16 b 16 490 229 16 16 229 b 490 964 16 751 229 964 b 964 490 751 964 964 751 b 490 16 964 229 751 16 z m 490 980 b 0 490 220 980 0 760 b 490 0 0 220 220 0 b 980 490 760 0 980 220 b 490 980 980 760 760 980 z "},"p":{"ha":1049,"x_min":0,"x_max":0,"o":"m 490 324 b 337 477 406 324 337 393 b 490 629 337 561 406 629 b 642 477 574 629 642 561 b 490 324 642 393 574 324 z m 490 646 b 321 477 397 646 321 570 b 490 308 321 384 397 308 b 658 477 583 308 658 384 b 490 646 658 570 583 646 z m 490 164 b 177 477 317 164 177 304 b 490 790 177 650 317 790 b 803 477 663 790 803 650 b 490 164 803 304 663 164 z m 490 806 b 161 477 308 806 161 658 b 490 148 161 295 308 148 b 819 477 671 148 819 295 b 490 806 819 658 671 806 z m 490 3 b 16 460 234 3 25 207 l 16 493 b 490 951 25 747 234 951 b 964 477 751 951 964 738 b 490 3 964 216 751 3 z m 321 -236 l 177 -236 l 177 101 b 321 17 219 65 268 37 l 321 -236 z m 16 351 b 161 114 41 259 92 177 l 161 -236 l 16 -236 l 16 351 z m 16 949 l 161 949 l 161 839 b 16 603 92 777 41 695 l 16 949 z m 321 937 b 177 853 268 917 219 889 l 177 949 l 321 949 l 321 937 z m 490 967 b 337 942 436 967 385 958 l 337 957 b 329 965 337 962 333 965 l 8 965 b 0 957 4 965 0 962 l 0 496 b 0 477 0 490 0 483 b 0 457 0 470 0 464 l 0 -244 b 8 -252 0 -249 4 -252 l 329 -252 b 337 -244 333 -252 337 -249 l 337 12 b 490 -13 385 -4 436 -13 b 980 477 760 -13 980 207 b 490 967 980 747 760 967 z "},"q":{"ha":1049,"x_min":0,"x_max":0,"o":"m 490 324 b 337 477 406 324 337 393 b 490 629 337 561 406 629 b 642 477 574 629 642 561 b 490 324 642 393 574 324 z m 490 646 b 321 477 397 646 321 570 b 490 308 321 384 397 308 b 658 477 583 308 658 384 b 490 646 658 570 583 646 z m 490 164 b 177 477 317 164 177 304 b 490 790 177 650 317 790 b 803 477 663 790 803 650 b 490 164 803 304 663 164 z m 490 806 b 161 477 308 806 161 658 b 490 148 161 295 308 148 b 819 477 671 148 819 295 b 490 806 819 658 671 806 z m 963 -236 l 819 -236 l 819 114 b 963 351 888 177 939 259 l 963 -236 z m 659 17 b 803 101 712 37 760 65 l 803 -236 l 659 -236 l 659 17 z m 16 477 b 490 951 16 738 229 951 b 963 494 746 951 954 747 l 963 460 b 490 3 954 207 746 3 b 16 477 229 3 16 216 z m 659 949 l 803 949 l 803 853 b 659 937 760 889 712 917 l 659 949 z m 963 603 b 819 839 939 695 888 777 l 819 949 l 963 949 l 963 603 z m 980 477 b 979 496 980 483 980 490 l 979 957 b 971 965 979 962 976 965 l 651 965 b 643 957 646 965 643 962 l 643 942 b 490 967 595 958 543 967 b 0 477 220 967 0 747 b 490 -13 0 207 220 -13 b 643 12 543 -13 595 -4 l 643 -244 b 651 -252 643 -249 646 -252 l 971 -252 b 979 -244 976 -252 979 -249 l 979 457 b 980 477 980 464 980 470 z "},"r":{"ha":883,"x_min":0,"x_max":0,"o":"m 798 505 l 653 505 l 653 649 b 482 821 653 744 576 821 l 326 821 b 154 649 231 821 154 744 l 154 16 l 16 16 l 16 654 b 330 968 16 827 157 968 l 484 968 b 798 654 657 968 798 827 l 798 505 z m 482 663 l 328 663 b 320 655 324 663 320 660 l 320 16 l 170 16 l 170 649 b 326 805 170 735 240 805 l 482 805 b 637 649 567 805 637 735 l 637 505 l 490 505 l 490 655 b 482 663 490 660 486 663 z m 484 984 l 330 984 b 0 654 148 984 0 836 l 0 8 b 8 0 0 4 4 0 l 328 0 b 336 8 333 0 336 4 l 336 647 l 474 647 l 474 497 b 482 489 474 493 477 489 l 806 489 b 814 497 810 489 814 493 l 814 654 b 484 984 814 836 666 984 z "},"s":{"ha":808,"x_min":0,"x_max":0,"o":"m 415 648 b 407 640 410 648 407 644 b 415 632 407 635 410 632 b 723 324 585 632 723 494 b 415 16 723 154 585 16 l 17 16 l 17 150 l 411 150 b 578 317 503 150 578 225 l 578 320 b 411 487 578 412 503 487 l 328 487 b 177 638 244 487 177 555 b 328 790 177 722 244 790 l 723 790 l 723 648 l 415 648 z m 325 316 b 333 324 329 316 333 319 b 325 332 333 328 329 332 b 17 640 155 332 17 470 b 325 948 17 810 155 948 l 723 948 l 723 806 l 328 806 b 161 638 236 806 161 731 b 328 471 161 546 236 471 l 411 471 b 562 320 494 471 562 403 l 562 317 b 411 166 562 234 494 166 l 17 166 l 17 316 l 325 316 z m 731 964 l 325 964 b 1 640 146 964 1 818 b 224 332 1 496 95 374 l 9 332 b 1 324 5 332 1 328 l 1 162 b 0 158 0 161 0 159 b 1 154 0 157 0 155 l 1 8 b 9 0 1 4 5 0 l 415 0 b 739 324 593 0 739 145 b 516 632 739 467 645 589 l 731 632 b 739 640 735 632 739 635 l 739 956 b 731 964 739 960 735 964 z "},"t":{"ha":888,"x_min":0,"x_max":0,"o":"m 573 658 l 573 802 l 803 802 l 803 658 l 573 658 z m 802 319 l 802 176 l 566 176 b 418 324 485 176 418 242 l 418 642 l 557 642 l 557 319 l 802 319 z m 527 16 b 248 295 374 16 248 141 l 248 642 l 402 642 l 402 324 b 566 160 402 233 476 160 l 802 160 l 802 16 l 527 16 z m 16 658 l 16 802 l 232 802 l 232 658 l 16 658 z m 232 963 l 232 818 l 16 818 l 16 963 l 232 963 z m 248 1204 l 402 1204 l 402 979 l 248 979 l 248 1204 z m 557 979 l 418 979 l 418 1204 l 557 1204 l 557 979 z m 418 818 l 418 963 l 557 963 l 557 818 l 418 818 z m 418 802 l 557 802 l 557 658 l 418 658 l 418 802 z m 248 818 l 248 963 l 402 963 l 402 818 l 248 818 z m 402 802 l 402 658 l 248 658 l 248 802 l 402 802 z m 803 963 l 803 818 l 573 818 l 573 963 l 803 963 z m 811 979 l 573 979 l 573 1220 l 232 1220 l 232 979 l 8 979 b 0 971 4 979 0 975 l 0 650 b 8 642 0 645 4 642 l 232 642 l 232 295 b 527 0 232 132 365 0 l 818 0 l 818 335 l 573 335 l 573 642 l 811 642 b 819 650 815 642 819 645 l 819 971 b 811 979 819 975 815 979 z "},"u":{"ha":1049,"x_min":0,"x_max":0,"o":"m 819 16 l 819 131 b 963 368 889 194 939 276 l 963 16 l 819 16 z m 659 35 b 803 118 712 55 761 83 l 803 16 l 659 16 l 659 35 z m 16 492 b 16 495 16 493 16 494 l 16 967 l 161 967 l 161 495 b 490 165 161 313 308 165 b 819 495 671 165 819 313 l 819 967 l 963 967 l 963 475 b 808 143 958 345 900 226 b 804 139 806 142 805 141 b 648 48 759 100 707 69 b 490 21 597 30 544 21 b 16 492 229 21 17 232 z m 321 492 b 490 326 323 400 398 326 b 658 492 582 326 657 400 b 659 495 659 493 659 494 l 659 967 l 803 967 l 803 495 b 490 181 803 322 663 181 b 177 495 317 181 177 322 l 177 967 l 321 967 l 321 495 b 321 492 321 494 321 493 z m 980 495 b 979 497 980 496 980 496 l 979 975 b 971 983 979 980 976 983 l 651 983 b 643 975 646 983 643 980 l 643 497 b 642 495 643 496 642 496 b 490 342 642 411 574 342 b 337 495 406 342 337 411 b 337 497 337 496 337 496 l 337 975 b 329 983 337 980 333 983 l 8 983 b 0 975 4 983 0 980 l 0 497 b 0 495 0 496 0 496 b 490 5 0 225 220 5 b 643 29 542 5 594 13 l 643 8 b 651 0 643 4 646 0 l 971 0 b 979 8 976 0 979 4 l 979 474 b 980 495 980 480 980 487 z "},"v":{"ha":1043,"x_min":0,"x_max":0,"o":"m 640 17 l 640 16 l 503 16 l 821 572 l 952 572 l 640 17 z m 22 572 l 164 572 l 476 16 l 334 16 l 22 572 z m 16 963 l 161 963 l 161 588 l 16 588 l 16 963 z m 321 588 l 177 588 l 177 963 l 321 963 l 321 588 z m 490 247 b 490 247 490 247 490 247 b 497 252 493 247 495 249 l 650 572 l 802 572 l 490 24 l 182 572 l 324 572 l 482 252 b 490 247 484 249 487 247 z m 653 963 l 806 963 l 806 588 l 653 588 l 653 963 z m 958 588 l 822 588 l 822 963 l 958 963 l 958 588 z m 973 577 b 974 578 973 577 973 578 b 974 579 974 578 974 579 b 974 580 974 579 974 580 l 974 971 b 966 979 974 976 970 979 l 645 979 b 637 971 640 979 637 976 l 637 582 l 489 274 l 337 582 l 337 971 b 329 979 337 976 333 979 l 8 979 b 0 971 4 979 0 976 l 0 580 b 0 579 0 580 0 579 b 0 578 0 579 0 578 b 0 577 0 578 0 577 b 1 576 1 577 1 577 b 1 576 1 576 1 576 l 319 9 l 322 4 b 329 0 323 2 326 0 l 490 0 b 490 0 490 0 490 0 b 490 0 490 0 490 0 l 645 0 b 652 4 648 0 650 2 l 654 9 l 973 576 b 973 576 973 576 973 576 b 973 577 973 577 973 577 z "},"w":{"ha":1696,"x_min":0,"x_max":0,"o":"m 1292 16 l 1147 16 l 1464 959 l 1607 959 l 1292 16 z m 824 497 b 816 502 823 500 820 502 b 809 497 813 502 810 500 l 648 16 l 510 16 l 818 941 l 1125 16 l 984 16 l 824 497 z m 20 959 l 173 959 l 487 16 l 334 16 l 20 959 z m 484 476 b 491 470 485 473 488 470 b 499 476 495 470 498 473 l 660 959 l 807 959 l 499 33 l 190 959 l 322 959 l 484 476 z m 1131 485 b 1138 479 1132 481 1135 479 b 1146 485 1142 479 1145 481 l 1304 959 l 1447 959 l 1136 33 l 830 959 l 973 959 l 1131 485 z m 1624 971 b 1618 975 1623 973 1621 975 l 1298 975 b 1291 969 1295 975 1292 972 l 1138 513 l 986 969 b 978 975 985 972 982 975 l 818 975 l 818 975 l 654 975 b 646 969 651 975 648 972 l 491 504 l 336 969 b 328 975 335 972 332 975 l 8 975 b 2 971 6 975 3 973 b 1 964 0 969 0 966 l 321 5 b 328 0 322 2 325 0 l 654 0 b 662 5 658 0 661 2 l 816 469 l 971 5 b 978 0 972 2 975 0 l 1298 0 b 1306 5 1302 0 1305 2 l 1626 964 b 1624 971 1626 966 1626 969 z "},"x":{"ha":1040,"x_min":0,"x_max":0,"o":"m 819 16 l 495 486 l 823 961 l 947 961 l 625 491 b 625 481 623 488 623 484 l 947 16 l 819 16 z m 492 278 b 485 281 491 280 488 281 b 479 278 483 281 480 280 l 300 16 l 170 16 l 485 472 l 800 16 l 671 16 l 492 278 z m 346 481 b 346 491 348 484 348 488 l 24 961 l 148 961 l 475 486 l 150 16 l 24 16 l 346 481 z m 479 692 b 492 692 482 688 489 688 l 679 961 l 803 961 l 485 500 l 168 961 l 292 961 l 479 692 z m 641 486 l 969 965 b 970 973 971 967 971 970 b 962 977 968 975 965 977 l 674 977 b 668 974 672 977 669 976 l 485 711 l 303 974 b 297 977 302 976 299 977 l 8 977 b 1 973 6 977 3 975 b 2 965 0 970 0 967 l 330 486 l 2 13 b 1 4 0 10 0 7 b 8 0 3 2 5 0 l 304 0 b 310 3 306 0 309 1 l 485 259 l 661 3 b 667 0 662 1 665 0 l 962 0 b 970 4 965 0 968 2 b 969 13 971 7 971 10 l 641 486 z "},"y":{"ha":1492,"x_min":0,"x_max":0,"o":"m 943 12 l 850 -153 b 337 -452 746 -337 549 -452 l 153 -452 l 153 -316 l 343 -316 b 709 -86 498 -316 642 -226 l 750 -1 l 750 -1 l 1216 967 l 1399 966 l 943 12 z m 337 -148 b 543 -29 422 -148 501 -102 l 565 8 b 565 19 567 12 567 16 l 25 967 l 190 966 l 740 16 l 695 -79 b 343 -300 630 -214 493 -300 l 153 -300 l 153 -148 l 337 -148 z m 741 357 l 1034 968 l 1198 967 l 749 33 l 208 966 l 389 964 l 741 357 z m 1023 981 l 739 391 l 400 978 b 395 980 399 979 397 980 l 6 984 b 2 976 2 984 0 979 l 546 19 b 546 8 548 16 548 12 l 529 -21 b 337 -132 490 -89 416 -132 l 142 -132 b 137 -137 139 -132 137 -134 l 137 -463 b 142 -468 137 -466 139 -468 l 337 -468 b 864 -161 555 -468 757 -350 l 958 4 l 1419 970 l 1421 974 b 1416 982 1423 978 1420 982 l 1028 984 b 1023 981 1026 984 1024 983 z "},"z":{"ha":1047,"x_min":0,"x_max":0,"o":"m 520 339 b 520 339 520 339 520 339 l 16 23 l 16 185 l 961 776 l 961 617 l 520 339 z m 961 324 l 961 178 l 294 178 l 526 324 l 961 324 z m 36 16 l 244 147 l 268 162 l 961 162 l 961 16 l 36 16 z m 961 955 l 961 795 l 16 204 l 16 367 l 961 955 z m 16 801 l 681 801 l 447 657 l 16 657 l 16 801 z m 941 962 l 707 817 l 16 817 l 16 962 l 941 962 z m 977 612 l 977 970 b 977 972 977 970 977 971 b 977 972 977 972 977 972 b 977 972 977 972 977 972 b 976 974 977 973 976 973 b 975 975 976 974 976 974 b 974 976 975 975 975 975 b 974 976 974 976 974 976 b 973 977 973 976 973 977 b 972 977 973 977 972 977 b 971 977 972 977 972 977 b 969 978 971 977 970 978 b 969 978 969 978 969 978 l 969 978 b 969 978 969 978 969 978 l 8 978 b 0 970 4 978 0 974 l 0 649 b 8 641 0 645 4 641 l 426 641 l 4 379 b 0 372 1 377 0 375 l 0 8 b 0 6 0 7 0 7 b 0 6 0 6 0 6 b 0 6 0 6 0 6 b 1 4 1 5 1 4 b 2 3 1 3 2 3 b 3 2 2 3 2 2 b 4 1 3 2 3 2 b 4 1 4 1 4 1 b 5 1 4 1 5 1 b 6 0 5 1 5 0 b 8 0 6 0 7 0 l 8 0 l 8 0 l 969 0 b 977 8 974 0 977 4 l 977 332 b 969 340 977 337 974 340 l 552 340 l 973 606 b 977 612 976 607 977 610 z "},"":{"ha":524,"x_min":0,"x_max":0,"o":""}}}
